<svg xmlns="http://www.w3.org/2000/svg" viewBox="0 0 1024 1024" role="img" aria-labelledby="title desc">
  <title id="title">MANYOYO Desktop Icon</title>
  <desc id="desc">Square app icon for MANYOYO Desktop</desc>
  <defs>
    <linearGradient id="bg" x1="0%" y1="0%" x2="100%" y2="100%">
      <stop offset="0%" stop-color="#08111f" />
      <stop offset="100%" stop-color="#0f172a" />
    </linearGradient>
    <linearGradient id="panel" x1="0%" y1="0%" x2="100%" y2="100%">
      <stop offset="0%" stop-color="#0f766e" />
      <stop offset="100%" stop-color="#14b8a6" />
    </linearGradient>
    <linearGradient id="glow" x1="0%" y1="0%" x2="100%" y2="100%">
      <stop offset="0%" stop-color="#99f6e4" stop-opacity="0.72" />
      <stop offset="100%" stop-color="#14b8a6" stop-opacity="0.08" />
    </linearGradient>
  </defs>

  <rect width="1024" height="1024" rx="236" fill="url(#bg)" />
  <circle cx="828" cy="182" r="132" fill="#ffffff" opacity="0.06" />
  <circle cx="884" cy="842" r="188" fill="#14b8a6" opacity="0.10" />
  <circle cx="180" cy="850" r="172" fill="#ffffff" opacity="0.04" />

  <rect x="184" y="184" width="656" height="656" rx="156" fill="url(#panel)" />
  <rect x="184" y="184" width="656" height="656" rx="156" fill="url(#glow)" />
  <rect x="184" y="184" width="656" height="656" rx="156" fill="none" stroke="#ccfbf1" stroke-opacity="0.24" stroke-width="8" />

  <rect x="324" y="328" width="376" height="268" rx="48" fill="none" stroke="#ccfbf1" stroke-width="28" />
  <path d="M390 432 L456 486 L390 540" fill="none" stroke="#ccfbf1" stroke-width="28" stroke-linecap="round" stroke-linejoin="round" />
  <path d="M492 544 H620" fill="none" stroke="#ccfbf1" stroke-width="28" stroke-linecap="round" />

  <rect x="314" y="648" width="396" height="32" rx="16" fill="#ccfbf1" opacity="0.92" />
  <rect x="420" y="722" width="184" height="24" rx="12" fill="#99f6e4" opacity="0.78" />
</svg>
